<?xml version="1.0" encoding="UTF-8" standalone="no"?>
<svg
   xmlns:dc="http://purl.org/dc/elements/1.1/"
   xmlns:cc="http://creativecommons.org/ns#"
   xmlns:rdf="http://www.w3.org/1999/02/22-rdf-syntax-ns#"
   xmlns:svg="http://www.w3.org/2000/svg"
   xmlns="http://www.w3.org/2000/svg"
   id="svg8"
   version="1.1"
   viewBox="0 0 43.878498 20.657079"
   height="78.073997"
   width="165.84">
  <defs
     id="defs2" />
  <metadata
     id="metadata5">
    <rdf:RDF>
      <cc:Work
         rdf:about="">
        <dc:format>image/svg+xml</dc:format>
        <dc:type
           rdf:resource="http://purl.org/dc/dcmitype/StillImage" />
        <dc:title></dc:title>
      </cc:Work>
    </rdf:RDF>
  </metadata>
  <g
     transform="translate(0,-276.34291)"
     id="layer1">
    <g
       id="flowRoot4747"
       style="font-style:normal;font-weight:normal;font-size:40px;line-height:1.25;font-family:sans-serif;letter-spacing:0px;word-spacing:0px;fill:#000000;fill-opacity:1;stroke:none"
       transform="matrix(0.66644232,0,0,0.66644232,-67.951064,-47.696461)"
       aria-label="org">
      <path
         id="path4755"
         style="font-style:normal;font-variant:normal;font-weight:normal;font-stretch:normal;font-family:monospace;-inkscape-font-specification:monospace"
         d="m 111.31641,489.26953 q -2.73438,0 -4.14063,2.12891 -1.40625,2.1289 -1.40625,6.30859 0,4.16016 1.40625,6.30859 1.40625,2.12891 4.14063,2.12891 2.7539,0 4.16015,-2.12891 1.40625,-2.14843 1.40625,-6.30859 0,-4.17969 -1.40625,-6.30859 -1.40625,-2.12891 -4.16015,-2.12891 z m 0,-3.04687 q 4.55078,0 6.95312,2.94921 2.42188,2.94922 2.42188,8.53516 0,5.60547 -2.40235,8.55469 -2.40234,2.92969 -6.97265,2.92969 -4.55078,0 -6.95313,-2.92969 -2.40234,-2.94922 -2.40234,-8.55469 0,-5.58594 2.40234,-8.53516 2.40235,-2.94921 6.95313,-2.94921 z" />
      <path
         id="path4757"
         style="font-style:normal;font-variant:normal;font-weight:normal;font-stretch:normal;font-family:monospace;-inkscape-font-specification:monospace"
         d="m 145.92578,491.26172 q -1.15234,-0.89844 -2.34375,-1.3086 -1.19141,-0.41015 -2.61719,-0.41015 -3.35937,0 -5.13672,2.10937 -1.77734,2.10938 -1.77734,6.09375 V 508.625 H 130.4375 V 486.75 h 3.61328 v 4.27734 q 0.89844,-2.32422 2.75391,-3.55468 1.875,-1.25 4.43359,-1.25 1.32813,0 2.48047,0.33203 1.15234,0.33203 2.20703,1.03515 z" />
      <path
         id="path4759"
         style="font-style:normal;font-variant:normal;font-weight:normal;font-stretch:normal;font-family:monospace;-inkscape-font-specification:monospace"
         d="m 164.20703,497.51172 q 0,-4.04297 -1.32812,-6.13281 -1.3086,-2.10938 -3.82813,-2.10938 -2.63672,0 -4.02344,2.10938 -1.38672,2.08984 -1.38672,6.13281 0,4.04297 1.38672,6.17187 1.40625,2.10938 4.0625,2.10938 2.48047,0 3.78907,-2.12891 1.32812,-2.1289 1.32812,-6.15234 z m 3.59375,9.70703 q 0,4.92187 -2.32422,7.46094 -2.32422,2.53906 -6.83594,2.53906 -1.48437,0 -3.10546,-0.27344 -1.6211,-0.27344 -3.24219,-0.80078 v -3.55469 q 1.91406,0.89844 3.47656,1.32813 1.5625,0.42969 2.87109,0.42969 2.91016,0 4.23829,-1.58204 1.32812,-1.58203 1.32812,-5.01953 v -0.15625 -2.4414 q -0.85937,1.83593 -2.34375,2.73437 -1.48437,0.89844 -3.61328,0.89844 -3.82813,0 -6.11328,-3.06641 -2.28516,-3.0664 -2.28516,-8.20312 0,-5.15625 2.28516,-8.22266 2.28515,-3.0664 6.11328,-3.0664 2.10937,0 3.57422,0.83984 1.46484,0.83984 2.38281,2.59766 v -2.83204 h 3.59375 z" />
    </g>
  </g>
</svg>
